<?xml version="1.0" encoding="UTF-8"?>
<svg width="800" height="800" viewBox="0 0 800 800" xmlns="http://www.w3.org/2000/svg" role="img" aria-label="Restaurant POS logo">
  <defs>
    <filter id="soft-shadow" x="-50%" y="-50%" width="200%" height="200%">
      <feGaussianBlur in="SourceAlpha" stdDeviation="8" result="blur"/>
      <feOffset in="blur" dx="0" dy="8" result="offsetBlur"/>
      <feMerge>
        <feMergeNode in="offsetBlur"/>
        <feMergeNode in="SourceGraphic"/>
      </feMerge>
    </filter>
    <clipPath id="roundedRect">
      <rect x="150" y="120" width="350" height="420" rx="34" ry="34"/>
    </clipPath>
  </defs>

  <rect width="100%" height="100%" fill="none"/>

  <g filter="url(#soft-shadow)">
    <rect x="150" y="120" width="350" height="420" rx="34" ry="34" fill="#1f2937"/>
    <rect x="440" y="430" width="42" height="80" rx="8" ry="8" fill="#f97316"/>
  </g>

  <rect x="190" y="160" width="280" height="170" rx="18" ry="18" fill="#ff7a18" stroke="#111827" stroke-width="4"/>

  <g transform="translate(260,190) scale(0.9)">
    <g transform="translate(-40,0)">
      <rect x="-6" y="10" width="12" height="80" rx="6" fill="#ffffff"/>
      <rect x="-18" y="0" width="12" height="40" rx="6" fill="#ffffff"/>
      <rect x="6" y="0" width="12" height="40" rx="6" fill="#ffffff"/>
      <rect x="-6" y="-8" width="12" height="18" rx="4" fill="#ffffff"/>
    </g>

    <g transform="translate(80, -6) rotate(0)">
      <path d="M6 0 C30 6 30 24 6 120 L-6 120 C-6 24 -6 6 6 0 Z" fill="#ffffff"/>
      <rect x="-10" y="112" width="24" height="8" rx="3" fill="#f97316"/>
    </g>
  </g>

  <g transform="translate(200,350)">
    <g fill="#111827" stroke="#111827" stroke-width="2">
      <rect x="0" y="0" width="58" height="50" rx="10" ry="10" />
      <rect x="72" y="0" width="58" height="50" rx="10" ry="10" />
      <rect x="144" y="0" width="58" height="50" rx="10" ry="10" />
      <rect x="0" y="66" width="58" height="50" rx="10" ry="10" />
      <rect x="72" y="66" width="58" height="50" rx="10" ry="10" />
      <rect x="144" y="66" width="58" height="50" rx="10" ry="10" />
      <rect x="0" y="132" width="58" height="50" rx="10" ry="10" />
      <rect x="72" y="132" width="58" height="50" rx="10" ry="10" />
      <rect x="144" y="132" width="58" height="50" rx="10" ry="10" />
    </g>
    <g opacity="0.06" fill="#ffffff">
      <rect x="4" y="4" width="50" height="6" rx="3"/>
      <rect x="76" y="4" width="50" height="6" rx="3"/>
      <rect x="148" y="4" width="50" height="6" rx="3"/>
    </g>
  </g>

  <g transform="translate(490,170)">
    <rect x="0" y="0" width="80" height="140" rx="8" ry="8" fill="#f8fafc" stroke="#111827" stroke-width="4"/>
    <path d="M0 20 h80 M0 46 h60 M0 72 h70" stroke="#9ca3af" stroke-width="6" stroke-linecap="round" fill="none"/>
    <path d="M0 140 q10-8 20 0 q10-8 20 0 q10-8 20 0 q10-8 20 0 v4 h-80 z" fill="#f8fafc" stroke="#111827" stroke-width="2"/>
  </g>

  <g transform="translate(400,600)" text-anchor="middle" font-family="Inter, Arial, Helvetica, sans-serif">
    <text x="0" y="0" font-size="48" font-weight="700" fill="#111827">RESTAURANT</text>
    <text x="0" y="64" font-size="48" font-weight="700" fill="#111827">POS</text>
  </g>

  <title>Restaurant POS logo</title>
  <desc>Stylized restaurant point-of-sale terminal with an orange screen showing fork and knife, numeric keypad, receipt and the text RESTAURANT POS.</desc>
</svg>
